<?xml version="1.0" encoding="UTF-8"?>
<svg width="878px" height="755px" viewBox="0 0 878 755" version="1.1" xmlns="http://www.w3.org/2000/svg" xmlns:xlink="http://www.w3.org/1999/xlink">
    <!-- Generator: Sketch 61.2 (89653) - https://sketch.com -->
    <title>Group</title>
    <desc>Created with Sketch.</desc>
    <defs>
        <linearGradient x1="50%" y1="0%" x2="50%" y2="100%" id="linearGradient-1">
            <stop stop-color="#FFFFFF" offset="0%"></stop>
            <stop stop-color="#F6F0FF" offset="56.2909%"></stop>
            <stop stop-color="#F2F5FD" offset="100%"></stop>
        </linearGradient>
    </defs>
    <g id="Page-1" stroke="none" stroke-width="1" fill="none" fill-rule="evenodd">
        <g id="UI---Template-11" transform="translate(-273.000000, -267.000000)">
            <rect id="Rectangle" fill="#FFFFFF" fill-rule="nonzero" x="-1" y="0" width="1440" height="1024"></rect>
            <rect id="Rectangle" fill="url(#linearGradient-1)" fill-rule="nonzero" x="-1" y="0" width="1440" height="1024"></rect>
            <g id="Group" transform="translate(273.651174, 267.000000)" fill-rule="nonzero">
                <path d="M124.956826,52.721 C139.394826,-9.554 228.016826,4.035 274.615826,4.034 C311.984826,4.034 554.030826,-12.102 579.509826,20.17 C617.826826,68.704 475.299826,47.66 457.212826,79.196 C399.953826,179.03 812.168826,74.483 740.878826,164.826 C705.379826,209.802 595.645826,164.083 595.645826,223.15 C595.645826,282.452 665.420826,246.761 674.445826,282.452 C693.301826,357.029 833.608826,286.884 821.558826,362.858 C812.218826,421.735 667.654826,374.226 637.261826,419.335 C616.782826,449.729 599.296826,461.655 613.056826,495.623 C639.005826,559.682 800.038826,526.297 837.508826,584.373 C873.558826,640.252 904.008826,754.66 837.508826,754.66 L23.4678264,754.66 C12.8538264,754.66 23.4678264,727.478 23.4678264,727.478 C31.9558264,649.042 197.146826,703.184 197.146826,624.29 C197.146826,573.905 105.183826,590.041 30.0218264,590.041 C-20.2251736,590.041 3.38782639,541.684 23.4678264,495.623 C64.6418264,401.176 329.741826,534.735 282.075826,443.392 C253.185826,388.031 132.886826,433.309 139.394826,371.203 C145.609826,311.901 261.623826,372.858 282.075826,316.849 C308.937826,243.28 67.4398264,322.306 83.5268264,245.656 C105.183826,142.468 286.658826,251.606 282.075826,164.826 C278.099826,89.555 107.933826,126.149 124.956826,52.721 Z" id="Path" fill-opacity="0.49" fill="#E6ECFA"></path>
                <polygon id="Path" fill="#2D42FA" points="683.987826 194.56 705.881826 156.638 743.598826 150.894 775.398826 185.767 753.208826 224.205 718.688826 234.545"></polygon>
                <polygon id="Path" fill-opacity="0.22" fill="#FFFFFF" points="683.838826 194.818 705.881826 156.638 741.628826 194.816 718.688826 234.544"></polygon>
                <polygon id="Path" fill-opacity="0.28" fill="#000000" points="741.328826 195.332 719.284826 233.512 753.208826 224.205 775.248826 186.025"></polygon>
                <polygon id="Path" fill="#2D42FA" points="766.148826 304.907 750.878826 278.462 760.558826 253.684 792.708826 246.635 808.188826 273.44 802.398826 297.892"></polygon>
                <polygon id="Path" fill-opacity="0.22" fill="#FFFFFF" points="766.248826 305.087 750.878826 278.462 786.398826 270.187 802.398826 297.892"></polygon>
                <polygon id="Path" fill-opacity="0.28" fill="#000000" points="786.608826 270.547 801.978826 297.172 808.188826 273.44 792.818826 246.815"></polygon>
                <polygon id="Path" fill="#2D42FA" points="690.389826 322.393 700.631826 304.654 718.272826 301.967 733.148826 318.28 722.768826 336.26 706.621826 341.097"></polygon>
                <polygon id="Path" fill-opacity="0.22" fill="#FFFFFF" points="690.319826 322.513 700.630826 304.654 717.350826 322.512 706.621826 341.096"></polygon>
                <polygon id="Path" fill-opacity="0.28" fill="#000000" points="717.211826 322.754 706.900826 340.613 722.768826 336.26 733.078826 318.4"></polygon>
            </g>
            <path d="M1072.47,944.14 C1096.9,957.656 1062.29,1003.06 1041.93,1024.07 L1004.89,1024.07 C978.572,1012.04 930.032,985.987 946.407,977.929 C966.876,967.857 935.035,956.486 925.938,930.818 C916.841,905.151 952.905,905.801 978.897,905.801 C1004.89,905.801 984.42,872.011 1011.71,864.213 C1039,856.416 1029.58,886.632 1029.58,905.801 C1029.58,924.97 1041.93,927.245 1072.47,944.14 Z" id="Path" fill="#8280FF" fill-rule="nonzero"></path>
            <path d="M1003.17,909.329 C1010.06,920.816 1014.81,984.683 1024.34,1022.8 L1013.62,1022.8 C1015.24,1017.61 982.101,1000.71 971.379,993.888 C960.657,987.065 972.678,975.368 976.902,973.419 C981.126,971.469 941.488,953.275 947.661,929.882 C952.24,912.528 976.207,950.359 982.75,933.131 C986.903,922.198 998.297,901.206 1003.17,909.329 Z" id="Path" fill-opacity="0.13" fill="#FFFFFF" fill-rule="nonzero"></path>
            <path d="M1026.94,1023.46 C1024.94,1017.94 1022.47,1010.42 1019.95,1001.69 M1016.54,885.05 C1009.07,895.771 1015.89,901.249 1011.67,920.743 C1006.92,942.659 1010.45,965.485 1016.54,989.179 M1016.54,989.179 C1002.68,970.497 985.025,953.277 956.434,935.732 M1016.54,989.179 C1017.66,993.547 1018.81,997.741 1019.95,1001.69 M1019.95,1001.69 C1027.8,990.533 1046.69,966.858 1059.43,961.4" id="Shape" stroke="#FBFBFB" stroke-width="1.46174" stroke-linecap="round"></path>
            <path d="M986.878,928.744 C957.631,944.923 999.06,999.267 1023.44,1024.42 L1067.77,1024.42 C1099.28,1010.03 1157.38,978.836 1137.78,969.191 C1113.28,957.134 1151.39,943.522 1162.28,912.798 C1173.17,882.073 1130,882.851 1098.89,882.851 C1067.77,882.851 1092.27,842.404 1059.61,833.07 C1026.94,823.736 1038.22,859.905 1038.22,882.851 C1038.22,905.797 1023.44,908.52 986.878,928.744 Z" id="Path" fill="#DEC8FA" fill-rule="nonzero"></path>
            <path d="M1069.83,887.076 C1061.58,900.827 1055.9,977.277 1044.49,1022.91 L1057.33,1022.91 C1055.38,1016.69 1095.05,996.463 1107.88,988.296 C1120.72,980.129 1087.56,978.908 1087.56,968.46 C1087.56,952.183 1143.67,939.681 1136.28,911.679 C1130.79,890.906 1102.11,936.191 1094.27,915.568 C1089.3,902.481 1075.66,877.353 1069.83,887.076 Z" id="Path" fill-opacity="0.13" fill="#FFFFFF" fill-rule="nonzero"></path>
            <path d="M1041.38,1023.69 C1043.77,1017.08 1046.72,1008.08 1049.74,997.631 M1053.82,858.013 C1062.77,870.847 1054.6,877.404 1059.66,900.739 C1065.34,926.972 1061.12,954.296 1053.82,982.658 M1053.82,982.658 C1070.42,960.295 1091.55,939.683 1125.77,918.681 M1053.82,982.658 C1052.48,987.887 1051.1,992.907 1049.74,997.631 M1049.74,997.631 C1040.34,984.279 1017.73,955.939 1002.49,949.406" id="Shape" stroke="#FBFBFB" stroke-width="1.74974" stroke-linecap="round"></path>
            <path d="M361.623,974.021 C375.399,981.642 355.883,1007.24 344.403,1019.09 L323.519,1019.09 C308.681,1012.31 281.312,997.616 290.545,993.073 C302.086,987.394 284.133,980.982 279.004,966.51 C273.875,952.038 294.209,952.405 308.864,952.405 C323.519,952.405 311.978,933.353 327.366,928.956 C342.754,924.56 337.442,941.596 337.442,952.405 C337.442,963.213 344.403,964.495 361.623,974.021 Z" id="Path" fill="#8280FF" fill-rule="nonzero"></path>
            <path d="M322.551,954.393 C326.437,960.87 329.112,996.88 334.485,1018.37 L328.44,1018.37 C329.356,1015.44 310.671,1005.92 304.625,1002.07 C298.58,998.223 305.358,991.628 307.74,990.529 C310.121,989.43 287.772,979.172 291.253,965.982 C293.835,956.197 307.348,977.528 311.037,967.814 C313.378,961.649 319.803,949.814 322.551,954.393 Z" id="Path" fill-opacity="0.13" fill="#FFFFFF" fill-rule="nonzero"></path>
            <path d="M335.951,1018.74 C334.825,1015.63 333.434,1011.39 332.013,1006.47 M330.089,940.704 C325.875,946.749 329.724,949.838 327.342,960.829 C324.665,973.186 326.654,986.056 330.089,999.415 M330.089,999.415 C322.273,988.882 312.319,979.173 296.199,969.281 M330.089,999.415 C330.722,1001.88 331.371,1004.24 332.013,1006.47 M332.013,1006.47 C336.44,1000.18 347.089,986.83 354.27,983.752" id="Shape" stroke="#FBFBFB" stroke-width="0.82417" stroke-linecap="round"></path>
            <path d="M313.364,965.34 C296.874,974.462 320.235,1005.1 333.976,1019.28 L358.975,1019.28 C376.737,1011.17 409.498,993.583 398.446,988.145 C384.631,981.347 406.121,973.672 412.261,956.349 C418.401,939.026 394.06,939.464 376.517,939.464 C358.975,939.464 372.79,916.659 354.37,911.396 C335.95,906.133 342.309,926.527 342.309,939.464 C342.309,952.402 333.976,953.937 313.364,965.34 Z" id="Path" fill="#DEC8FA" fill-rule="nonzero"></path>
            <path d="M360.134,941.847 C355.482,949.6 352.28,992.705 345.848,1018.43 L353.084,1018.43 C351.988,1014.93 374.355,1003.52 381.591,998.917 C388.828,994.313 370.131,993.624 370.131,987.733 C370.131,978.556 401.765,971.507 397.599,955.719 C394.508,944.006 378.332,969.539 373.916,957.911 C371.114,950.532 363.423,936.365 360.134,941.847 Z" id="Path" fill-opacity="0.13" fill="#FFFFFF" fill-rule="nonzero"></path>
            <path d="M344.093,1018.87 C345.441,1015.15 347.106,1010.07 348.807,1004.18 M351.11,925.46 C356.154,932.696 351.547,936.393 354.398,949.55 C357.603,964.341 355.222,979.748 351.11,995.739 M351.11,995.739 C360.467,983.13 372.381,971.508 391.678,959.667 M351.11,995.739 C350.352,998.687 349.576,1001.52 348.807,1004.18 M348.807,1004.18 C343.508,996.652 330.761,980.674 322.165,976.99" id="Shape" stroke="#FBFBFB" stroke-width="0.986553" stroke-linecap="round"></path>
            <path d="M626.796,915.875 C626.796,972.787 580.659,1018.92 523.747,1018.92 C466.835,1018.92 420.698,972.787 420.698,915.875 C420.698,858.962 466.835,812.826 523.747,812.826 C580.659,812.826 626.796,858.962 626.796,915.875 Z M431.003,915.875 C431.003,967.096 472.526,1008.62 523.747,1008.62 C574.968,1008.62 616.491,967.096 616.491,915.875 C616.491,864.654 574.968,823.131 523.747,823.131 C472.526,823.131 431.003,864.654 431.003,915.875 Z" id="Shape" fill="#09205B" fill-rule="nonzero"></path>
            <path d="M1006.88,915.875 C1006.88,972.787 960.746,1018.92 903.833,1018.92 C846.921,1018.92 800.785,972.787 800.785,915.875 C800.785,858.962 846.921,812.826 903.833,812.826 C960.746,812.826 1006.88,858.962 1006.88,915.875 Z M811.089,915.875 C811.089,967.096 852.612,1008.62 903.833,1008.62 C955.055,1008.62 996.577,967.096 996.577,915.875 C996.577,864.653 955.055,823.131 903.833,823.131 C852.612,823.131 811.089,864.653 811.089,915.875 Z" id="Shape" fill="#09205B" fill-rule="nonzero"></path>
            <path d="M954.855,894.218 C955.281,893.985 955.816,894.141 956.042,894.57 C960.327,902.683 962.648,911.693 962.816,920.875 C962.988,930.349 960.861,939.725 956.616,948.197 C952.372,956.67 946.137,963.987 938.445,969.522 C930.991,974.886 922.384,978.421 913.321,979.847 C912.841,979.923 912.396,979.588 912.328,979.107 C912.259,978.626 912.594,978.182 913.073,978.106 C921.855,976.72 930.194,973.292 937.417,968.095 C944.879,962.726 950.927,955.628 955.044,947.41 C959.161,939.191 961.225,930.097 961.057,920.907 C960.895,912.009 958.647,903.278 954.5,895.414 C954.273,894.985 954.429,894.451 954.855,894.218 Z" id="Path" fill-opacity="0.27" fill="#09205B" fill-rule="nonzero"></path>
            <path d="M949.637,900.156 C950.019,899.972 950.478,900.133 950.655,900.518 C953.36,906.381 954.93,912.706 955.282,919.158 C955.648,925.865 954.689,932.578 952.46,938.915 C950.231,945.252 946.775,951.087 942.291,956.089 C937.978,960.899 932.793,964.848 927.014,967.727 C926.635,967.915 926.176,967.754 925.993,967.372 C925.81,966.99 925.971,966.532 926.35,966.343 C931.948,963.551 936.97,959.725 941.149,955.064 C945.498,950.213 948.85,944.552 951.012,938.406 C953.174,932.259 954.105,925.747 953.75,919.241 C953.409,912.99 951.889,906.863 949.272,901.182 C949.094,900.797 949.255,900.339 949.637,900.156 Z" id="Path" fill-opacity="0.27" fill="#09205B" fill-rule="nonzero"></path>
            <path d="M466.006,894.218 C465.58,893.985 465.045,894.141 464.818,894.57 C460.534,902.683 458.212,911.693 458.045,920.875 C457.873,930.349 460,939.725 464.244,948.197 C468.489,956.67 474.724,963.987 482.416,969.522 C489.87,974.886 498.477,978.421 507.54,979.847 C508.02,979.923 508.465,979.588 508.533,979.107 C508.602,978.626 508.267,978.182 507.787,978.106 C499.005,976.72 490.667,973.292 483.443,968.095 C475.982,962.726 469.934,955.628 465.817,947.41 C461.699,939.191 459.636,930.097 459.803,920.907 C459.965,912.009 462.213,903.278 466.361,895.414 C466.588,894.985 466.432,894.451 466.006,894.218 Z" id="Path" fill-opacity="0.27" fill="#09205B" fill-rule="nonzero"></path>
            <path d="M471.224,900.156 C470.842,899.972 470.383,900.133 470.205,900.518 C467.501,906.381 465.93,912.706 465.579,919.158 C465.213,925.865 466.172,932.578 468.401,938.915 C470.63,945.252 474.086,951.087 478.57,956.089 C482.883,960.899 488.068,964.848 493.847,967.727 C494.226,967.915 494.685,967.754 494.868,967.372 C495.051,966.99 494.89,966.532 494.511,966.343 C488.913,963.551 483.891,959.725 479.712,955.064 C475.363,950.213 472.011,944.552 469.849,938.406 C467.687,932.259 466.756,925.747 467.111,919.241 C467.452,912.99 468.972,906.863 471.589,901.182 C471.767,900.797 471.606,900.339 471.224,900.156 Z" id="Path" fill-opacity="0.27" fill="#09205B" fill-rule="nonzero"></path>
            <circle id="Oval" fill="#292929" fill-rule="nonzero" cx="658.532" cy="915.501" r="31.7361"></circle>
            <path d="M660.399,884.139 L514.413,890.859 C514.413,890.859 495.241,895.713 495.745,916.995 C496.249,938.277 518.147,942.757 518.147,942.757 L667.12,946.864 C667.12,946.864 692.882,939.397 689.521,916.995 C685.955,893.223 660.399,884.139 660.399,884.139 Z" id="Path" stroke="#000000" stroke-width="2.24019"></path>
            <polygon id="Path" fill="#7E7E7E" points="719.823 933.477 714.727 933.477 714.727 949.614 658.675 949.614 658.675 953.86 719.823 953.86 719.823 952.162 719.823 949.614"></polygon>
            <path d="M715.518,548.295 L722.761,535.266 C732.207,542.069 750.846,540.595 759.682,498.044 C756.209,477.305 707.52,469.446 710.96,518.018 L695.169,539.402 C696.198,544.293 705.902,555.541 715.518,548.295 Z M870.23,678.134 C855.593,678.134 800.784,668.707 800.784,668.707 L813.479,648.545 C813.479,648.545 843.697,663.383 864.63,663.2 C868.234,663.168 871.013,663.188 873.726,663.208 L873.727,663.208 C876.768,663.231 879.727,663.252 883.672,663.2 C890.173,663.113 898.606,664.693 898.606,664.693 L902.34,671.414 C902.34,671.414 904.318,689.258 900.846,685.135 C900.405,684.61 900.008,683.511 899.519,682.158 L899.519,682.158 C898.355,678.935 896.672,674.275 892.632,672.534 C888.749,670.86 884.872,670.076 881.431,672.534 C876.204,676.267 872.844,678.134 870.23,678.134 Z M725.767,887.191 L718.548,914.722 L701.228,914.722 L707.443,831.961 L739.926,831.961 L725.767,887.191 Z M682.427,914.101 L676.08,963.292 L654.798,963.292 L654.798,858.47 L690.641,861.83 L682.427,914.101 Z" id="Shape" fill="#C44949"></path>
            <path d="M698.482,931.505 C698.482,924.566 698.482,918.521 698.482,914.722 C698.482,910.745 704.575,914.658 708.552,914.722 C713.001,914.793 721.097,913.094 721.097,913.094 C721.097,913.094 728.961,920.088 749.123,923.711 C751.205,924.084 752.945,926.464 754.078,928.497 C754.894,929.962 753.875,931.649 752.203,931.787 C740.064,932.794 698.482,935.921 698.482,931.505 Z" id="Path" fill="#A0EEF8" fill-rule="nonzero"></path>
            <path d="M748.139,841.295 C756.815,813.681 759.285,800.898 755.98,786.784 L748.139,773.622 L682.427,773.622 L705.576,796.864 L702.589,841.295 L748.139,841.295 Z" id="Path" fill="#130D59" fill-rule="nonzero"></path>
            <rect id="Rectangle" fill="#0D0D0D" fill-rule="nonzero" x="538.682" y="724.432" width="94.8348" height="32.1094" rx="16.0547"></rect>
            <path d="M883.671,750.473 L828.787,771.009 L827.348,771.009 L827.293,770.729 L650.691,769.982 L650.691,788.65 L830.653,787.903 L830.635,787.81 L831.027,787.81 L883.671,765.035 L885.165,797.144 L892.493,906.374 C892.782,910.67 896.351,914.008 900.657,914.008 C905.401,914.008 909.151,909.985 908.818,905.252 L901.219,797.144 L898.173,750.473 L895.201,686.335 L884.16,686.335 L883.671,750.473 Z M535.695,888.245 L575.869,755.794 L560.337,755.794 L519.267,888.245 L512.376,915.519 C511.253,919.965 514.105,924.439 518.61,925.297 C522.753,926.086 526.793,923.51 527.825,919.421 L535.695,888.245 Z" id="Shape" fill="#40E2F8"></path>
            <path d="M566.311,755.794 L525.987,884.232 L519.863,920.211 C519.518,922.235 517.765,923.715 515.712,923.715 C512.969,923.715 510.958,921.134 511.63,918.474 L519.266,888.246 L560.337,755.794 L566.311,755.794 Z" id="Path" fill-opacity="0.15" fill="#0F69D2" fill-rule="nonzero"></path>
            <polygon id="Path" fill-opacity="0.13" fill="#2B5DDC" fill-rule="nonzero" points="677.947 781.93 834.387 781.93 831.027 787.53 680.56 788.277"></polygon>
            <polygon id="Path" fill-opacity="0.09" fill="#1118AC" fill-rule="nonzero" points="895.619 887.966 891.885 892.073 883.671 765.502 831.027 787.53 834.387 781.556 888.898 758.034"></polygon>
            <path d="M615.969,805.359 C555.932,745.023 561.333,688.744 574.525,666.84 C603.498,681.476 646.211,686.255 663.012,686.255 C683.622,697.904 728.351,747.114 748.14,770.262 L678.32,770.262 L649.571,735.166 C649.571,735.166 688.321,790.509 697.362,833.454 C701.469,852.963 692.882,882.739 692.882,882.739 L649.571,882.739 L649.571,838.588 L615.969,805.359 Z" id="Path" fill="#130D59" fill-rule="nonzero"></path>
            <polygon id="Path" fill-opacity="0.13" fill="#000000" fill-rule="nonzero" points="653.678 739.74 678.32 769.982 698.856 769.982"></polygon>
            <path d="M648.824,734.886 C648.824,734.886 649.197,735.44 649.873,736.476 C704.801,819.931 702.528,843.032 692.882,881.618 L686.161,881.618 C686.161,881.618 693.304,851.21 691.015,830.467 C687.102,795.019 656.008,745.882 649.873,736.476 C649.526,735.948 649.176,735.418 648.824,734.886 Z" id="Path" fill-opacity="0.23" fill="#000000" fill-rule="nonzero"></path>
            <polygon id="Path" fill-opacity="0.22" fill="#000000" fill-rule="nonzero" points="662.639 963.385 655.172 962.265 655.172 882.739 661.145 882.739"></polygon>
            <polygon id="Path" fill-opacity="0.22" fill="#000000" fill-rule="nonzero" points="707.069 914.101 701.469 912.981 707.069 841.295 713.043 841.295"></polygon>
            <path d="M663.012,687.095 C626.422,700.91 579.005,678.414 573.778,667.213 C647.854,579.099 682.801,541.887 697.735,535.789 C733.578,535.789 741.917,587.313 742.912,607.102 L822.813,647.052 C825.673,659.704 816.465,667.213 806.758,680.748 C738.357,661.632 704.58,637.593 700.722,625.396 L663.012,687.095 Z" id="Path" fill="#DEC8FA" fill-rule="nonzero"></path>
            <path d="M639.49,691.202 C642.178,692.695 655.669,689.211 662.639,687.095 L699.975,625.863 L685.041,630.717 L682.427,635.197 L639.49,691.202 Z" id="Path" fill-opacity="0.12" fill="#FFFFFF" fill-rule="nonzero"></path>
            <circle id="Oval" fill="#000000" fill-rule="nonzero" cx="523.747" cy="915.875" r="26.8823"></circle>
            <path d="M716.936,984.329 L652.184,986.441 C652.184,986.441 649.044,983.993 649.198,978.6 C649.34,973.619 652.184,961.425 652.184,961.425 C652.184,961.425 659.64,963.214 664.505,963.292 C669.949,963.38 678.32,961.425 678.32,961.425 C678.32,961.425 686.095,971.41 712.604,975.517 C715.015,975.891 717.306,978.537 718.865,980.81 C719.911,982.338 718.786,984.269 716.936,984.329 Z" id="Path" fill="#ADEFF8" fill-rule="nonzero"></path>
            <rect id="Rectangle" fill="#000000" fill-rule="nonzero" x="643.971" y="984.294" width="67.2058" height="6.72058" rx="3.36029"></rect>
            <ellipse id="Oval" fill="#0D0D0D" fill-rule="nonzero" cx="889.467" cy="680.755" rx="10.8276" ry="9.7075"></ellipse>
            <path d="M550.816,787.4 L507.502,770.839 M544.282,807.319 L457.288,772.223" id="Shape" stroke="#000000" stroke-width="2.98692"></path>
            <polygon id="Path" fill="#C4C4C4" fill-rule="nonzero" points="413.231 764.755 558.097 764.755 554.736 773.716 413.231 773.716"></polygon>
            <path d="M610.368,632.957 C600.666,642.205 585.27,635.024 577.138,624.369 C568.159,612.606 580.872,586.659 580.872,586.659 C592.695,565.751 632.77,521.694 686.908,553.804 C686.908,553.804 705.211,543.775 716.403,547.456 C723.053,549.643 730.965,557.91 730.965,557.91 L733.578,564.258 C733.578,564.258 723.929,556.045 716.403,553.804 C701.936,549.494 678.694,562.298 678.694,562.298 L639.973,602.341 C639.973,602.341 666.657,618.805 682.427,626.983 C690.002,630.911 700.349,626.983 700.349,626.983 L696.615,632.957 C696.615,632.957 685.375,637.514 678.694,632.957 C664.011,622.942 633.143,609.404 633.143,609.404 C633.143,609.404 616.634,626.983 610.368,632.957 Z" id="Path" fill="#6989FA" fill-rule="nonzero"></path>
            <path d="M675.333,544.843 C664.281,569.336 616.715,614.289 575.271,619.142 C571.089,607.494 580.996,585.167 586.845,576.206 C620.697,555.546 686.385,520.35 675.333,544.843 Z" id="Path" fill-opacity="0.11" fill="#FFFFFF" fill-rule="nonzero"></path>
            <path d="M657.785,549.696 C646.734,574.189 615.595,607.568 574.151,612.422 C574.151,601.968 581.37,583.673 587.219,574.712 C621.071,554.052 668.837,525.204 657.785,549.696 Z" id="Path" fill-opacity="0.12" fill="#FFFFFF" fill-rule="nonzero"></path>
            <path d="M727.231,509.653 C731.328,497.121 746.231,514.507 759.86,500.982 C770.031,489.342 758.988,486.698 746.231,476.449 C733.473,466.2 707.503,478.981 699.291,484.021 C691.078,489.061 678.149,470.566 661.969,466.44 C645.79,462.314 654.856,477.171 643.683,476.389 C632.509,475.608 621.241,465.463 620.069,482.224 C618.897,498.984 594.706,491.679 574.653,494.768 C574.653,494.768 550.151,494.027 546.336,505.173 C542.966,515.02 557.745,519.042 557.35,529.442 C556.956,539.842 543.291,528.229 538.682,555.951 C534.072,583.673 584.153,584.886 587.111,589.582 C597.673,606.355 612.608,570.512 616.907,591.666 C619.718,605.497 645.091,586.193 654.234,577.059 C674.773,556.541 714.537,548.483 727.231,509.653 Z" id="Path" fill="#15135D" fill-rule="nonzero"></path>
            <path d="M620.069,482.224 C618.897,498.984 594.705,491.679 574.653,494.768 C574.653,494.768 550.151,494.027 546.336,505.173 C542.966,515.021 557.744,519.042 557.35,529.442 C556.955,539.843 543.291,528.229 538.681,555.951 C567.596,567.307 640.198,574.637 699.29,513.107 C710.817,500.543 739.068,480.529 759.86,500.982 C770.031,489.342 758.987,486.698 746.23,476.449 C733.473,466.2 707.502,478.981 699.29,484.021 C691.078,489.061 678.148,470.566 661.969,466.44 C645.789,462.314 654.856,477.171 643.682,476.389 C632.509,475.608 621.241,465.463 620.069,482.224 Z" id="Path" fill-opacity="0.05" fill="#000000" fill-rule="nonzero"></path>
            <ellipse id="Oval" fill="#5EE5ED" fill-rule="nonzero" cx="729.098" cy="507.506" rx="8.21404" ry="8.58741"></ellipse>
            <ellipse id="Oval" fill-opacity="0.33" fill="#FFFFFF" fill-rule="nonzero" cx="729.098" cy="507.405" rx="5.97385" ry="6.24539"></ellipse>
            <path d="M746.273,473.157 L730.965,498.919 L727.604,504.893 C727.604,504.893 726.965,506.899 727.978,507.506 C729.845,508.627 730.965,507.133 730.965,507.133 L734.698,501.533 L752.993,477.637 L746.273,473.157 Z" id="Path" fill="#19D6E2" fill-rule="nonzero"></path>
            <path d="M746.273,473.157 L730.965,498.919 L727.605,504.893 C727.605,504.893 726.797,506.76 727.978,506.76 C728.725,506.76 729.471,505.64 729.471,505.64 L732.831,499.292 L748.513,474.65 L746.273,473.157 Z" id="Path" fill="#05C5D2" fill-rule="nonzero"></path>
            <path d="M656.665,881.618 L656.665,827.107 C656.665,827.107 626.217,801.733 609.621,782.677 C591.185,761.508 568.551,723.685 568.551,723.685 C573.404,764.008 617.462,811.426 650.318,837.561 L650.318,881.618 L656.665,881.618 Z" id="Path" fill-opacity="0.19" fill="#000000" fill-rule="nonzero"></path>
            <rect id="Rectangle" fill="#000000" fill-rule="nonzero" x="694.748" y="930.53" width="50.7777" height="5.97385" rx="2.98692"></rect>
            <polygon id="Path" fill-opacity="0.17" fill="#000000" fill-rule="nonzero" points="712.296 840.922 702.962 840.922 705.949 796.864 697.362 788.65 712.296 788.65 717.524 796.864"></polygon>
            <path d="M743.285,614.289 C733.768,611.645 740.672,588.9 740.672,588.9 L742.166,598.608 L742.913,607.195 L805.638,638.558473 C805.638,638.558473 792.926,638.692 789.957,634.451 C787.343,630.717 750.006,616.156 743.285,614.289 Z" id="Path" fill-opacity="0.12" fill="#FFFFFF" fill-rule="nonzero"></path>
            <polygon id="Path" fill-opacity="0.15" fill="#000000" fill-rule="nonzero" points="860.896 675.894 818.706 664.693 814.225 671.04 841.108 675.147 854.549 677.014 865.376 678.134"></polygon>
            <rect id="Rectangle" fill="#E4BE9A" fill-rule="nonzero" x="427.419" y="659.466" width="106.783" height="105.289"></rect>
            <path d="M440.113,764.008 L440.113,659.839 M427.792,697.923 L533.828,697.923" id="Shape" stroke="#000000" stroke-width="2.24019"></path>
            <rect id="Rectangle" fill-opacity="0.19" fill="#FFFFFF" fill-rule="nonzero" x="491.637" y="740.86" width="37.3365" height="18.6683"></rect>
            <rect id="Rectangle" fill="#E0AC7C" fill-rule="nonzero" x="440.86" y="625.116" width="35.0964" height="34.6055"></rect>
            <rect id="Rectangle" fill-opacity="0.19" fill="#FFFFFF" fill-rule="nonzero" x="449.821" y="634.824" width="14.9973" height="7.49866"></rect>
            <circle id="Oval" fill="#000000" fill-rule="nonzero" cx="904.206" cy="921.942" r="20.5351"></circle>
            <path d="M431.569,255.022 L431.569,267 L435.678,267 C439.239,267 441.331,264.784 441.331,261.007 C441.331,257.238 439.23,255.022 435.678,255.022 L431.569,255.022 Z M433.063,256.367 L435.578,256.367 C438.234,256.367 439.803,258.093 439.803,261.023 C439.803,263.945 438.251,265.655 435.578,265.655 L433.063,265.655 L433.063,256.367 Z M447.307,259.156 C448.727,259.156 449.673,260.202 449.706,261.787 L444.775,261.787 C444.883,260.202 445.879,259.156 447.307,259.156 Z M449.665,264.684 C449.291,265.473 448.511,265.896 447.357,265.896 C445.838,265.896 444.85,264.775 444.775,263.007 L444.775,262.941 L451.208,262.941 L451.208,262.393 C451.208,259.612 449.739,257.894 447.324,257.894 C444.867,257.894 443.29,259.72 443.29,262.534 C443.29,265.365 444.842,267.158 447.324,267.158 C449.283,267.158 450.677,266.211 451.092,264.684 L449.665,264.684 Z M460.854,260.791 C460.605,259.197 459.277,257.894 457.102,257.894 C454.595,257.894 453.001,259.704 453.001,262.493 C453.001,265.34 454.604,267.158 457.11,267.158 C459.26,267.158 460.597,265.946 460.854,264.302 L459.41,264.302 C459.144,265.315 458.306,265.871 457.102,265.871 C455.508,265.871 454.479,264.56 454.479,262.493 C454.479,260.467 455.492,259.181 457.102,259.181 C458.389,259.181 459.177,259.903 459.41,260.791 L460.854,260.791 Z M462.996,267 L464.423,267 L464.423,258.052 L462.996,258.052 L462.996,267 Z M463.709,256.325 C464.257,256.325 464.706,255.877 464.706,255.329 C464.706,254.781 464.257,254.333 463.709,254.333 C463.162,254.333 462.713,254.781 462.713,255.329 C462.713,255.877 463.162,256.325 463.709,256.325 Z M470.458,267.158 C471.695,267.158 472.757,266.568 473.322,265.572 L473.455,265.572 L473.455,267 L474.816,267 L474.816,254.499 L473.388,254.499 L473.388,259.463 L473.264,259.463 C472.757,258.483 471.703,257.894 470.458,257.894 C468.184,257.894 466.698,259.72 466.698,262.526 C466.698,265.34 468.167,267.158 470.458,267.158 Z M470.79,259.181 C472.409,259.181 473.421,260.476 473.421,262.526 C473.421,264.593 472.417,265.871 470.79,265.871 C469.155,265.871 468.175,264.618 468.175,262.526 C468.175,260.442 469.163,259.181 470.79,259.181 Z M481.158,259.156 C482.577,259.156 483.523,260.202 483.557,261.787 L478.626,261.787 C478.734,260.202 479.73,259.156 481.158,259.156 Z M483.515,264.684 C483.142,265.473 482.361,265.896 481.208,265.896 C479.688,265.896 478.701,264.775 478.626,263.007 L478.626,262.941 L485.059,262.941 L485.059,262.393 C485.059,259.612 483.59,257.894 481.174,257.894 C478.717,257.894 477.14,259.72 477.14,262.534 C477.14,265.365 478.692,267.158 481.174,267.158 C483.133,267.158 484.528,266.211 484.943,264.684 L483.515,264.684 Z M488.205,270.046 L489.508,265.323 L487.923,265.323 L487.134,270.046 L488.205,270.046 Z M501.503,257.894 C500.283,257.894 499.212,258.517 498.639,259.546 L498.506,259.546 L498.506,258.052 L497.145,258.052 L497.145,269.988 L498.573,269.988 L498.573,265.655 L498.706,265.655 C499.195,266.602 500.225,267.158 501.503,267.158 C503.777,267.158 505.263,265.323 505.263,262.526 C505.263,259.712 503.786,257.894 501.503,257.894 Z M501.163,265.871 C499.552,265.871 498.531,264.576 498.531,262.526 C498.531,260.467 499.552,259.181 501.171,259.181 C502.806,259.181 503.786,260.434 503.786,262.526 C503.786,264.618 502.806,265.871 501.163,265.871 Z M507.587,267 L509.015,267 L509.015,254.499 L507.587,254.499 L507.587,267 Z M514.543,265.904 C513.506,265.904 512.734,265.373 512.734,264.46 C512.734,263.563 513.332,263.09 514.693,262.999 L517.1,262.841 L517.1,263.663 C517.1,264.941 516.013,265.904 514.543,265.904 Z M514.278,267.158 C515.473,267.158 516.453,266.635 517.034,265.68 L517.167,265.68 L517.167,267 L518.528,267 L518.528,260.874 C518.528,259.015 517.308,257.894 515.125,257.894 C513.215,257.894 511.804,258.84 511.613,260.276 L513.058,260.276 C513.257,259.571 514.004,259.164 515.075,259.164 C516.411,259.164 517.1,259.77 517.1,260.874 L517.1,261.688 L514.519,261.845 C512.435,261.97 511.256,262.891 511.256,264.493 C511.256,266.128 512.543,267.158 514.278,267.158 Z M521.167,267 L522.595,267 L522.595,261.704 C522.595,260.135 523.517,259.181 524.944,259.181 C526.372,259.181 527.053,259.944 527.053,261.555 L527.053,267 L528.48,267 L528.48,261.206 C528.48,259.081 527.36,257.894 525.351,257.894 C523.981,257.894 523.11,258.475 522.662,259.463 L522.529,259.463 L522.529,258.052 L521.167,258.052 L521.167,267 Z M532,270.046 L533.303,265.323 L531.718,265.323 L530.929,270.046 L532,270.046 Z M548.344,260.791 C548.095,259.197 546.767,257.894 544.592,257.894 C542.085,257.894 540.492,259.704 540.492,262.493 C540.492,265.34 542.094,267.158 544.601,267.158 C546.75,267.158 548.087,265.946 548.344,264.302 L546.9,264.302 C546.634,265.315 545.796,265.871 544.592,265.871 C542.999,265.871 541.969,264.56 541.969,262.493 C541.969,260.467 542.982,259.181 544.592,259.181 C545.879,259.181 546.667,259.903 546.9,260.791 L548.344,260.791 Z M554.13,267.158 C556.678,267.158 558.255,265.398 558.255,262.526 C558.255,259.646 556.678,257.894 554.13,257.894 C551.582,257.894 550.004,259.646 550.004,262.526 C550.004,265.398 551.582,267.158 554.13,267.158 Z M554.13,265.871 C552.437,265.871 551.482,264.643 551.482,262.526 C551.482,260.401 552.437,259.181 554.13,259.181 C555.823,259.181 556.778,260.401 556.778,262.526 C556.778,264.643 555.823,265.871 554.13,265.871 Z M560.497,267 L561.924,267 L561.924,261.704 C561.924,260.135 562.846,259.181 564.273,259.181 C565.701,259.181 566.382,259.944 566.382,261.555 L566.382,267 L567.81,267 L567.81,261.206 C567.81,259.081 566.689,257.894 564.68,257.894 C563.311,257.894 562.439,258.475 561.991,259.463 L561.858,259.463 L561.858,258.052 L560.497,258.052 L560.497,267 Z M570.424,267 L571.852,267 L571.852,261.704 C571.852,260.135 572.773,259.181 574.201,259.181 C575.629,259.181 576.31,259.944 576.31,261.555 L576.31,267 L577.737,267 L577.737,261.206 C577.737,259.081 576.617,257.894 574.608,257.894 C573.238,257.894 572.367,258.475 571.918,259.463 L571.786,259.463 L571.786,258.052 L570.424,258.052 L570.424,267 Z M583.921,259.156 C585.341,259.156 586.287,260.202 586.32,261.787 L581.39,261.787 C581.498,260.202 582.494,259.156 583.921,259.156 Z M586.279,264.684 C585.905,265.473 585.125,265.896 583.971,265.896 C582.452,265.896 581.464,264.775 581.39,263.007 L581.39,262.941 L587.823,262.941 L587.823,262.393 C587.823,259.612 586.354,257.894 583.938,257.894 C581.481,257.894 579.904,259.72 579.904,262.534 C579.904,265.365 581.456,267.158 583.938,267.158 C585.897,267.158 587.292,266.211 587.707,264.684 L586.279,264.684 Z M597.468,260.791 C597.219,259.197 595.891,257.894 593.716,257.894 C591.209,257.894 589.616,259.704 589.616,262.493 C589.616,265.34 591.218,267.158 593.725,267.158 C595.875,267.158 597.211,265.946 597.468,264.302 L596.024,264.302 C595.758,265.315 594.92,265.871 593.716,265.871 C592.123,265.871 591.093,264.56 591.093,262.493 C591.093,260.467 592.106,259.181 593.716,259.181 C595.003,259.181 595.792,259.903 596.024,260.791 L597.468,260.791 Z M600.34,255.736 L600.34,258.052 L598.896,258.052 L598.896,259.247 L600.34,259.247 L600.34,264.676 C600.34,266.386 601.079,267.066 602.922,267.066 C603.204,267.066 603.478,267.033 603.76,266.983 L603.76,265.78 C603.495,265.805 603.354,265.813 603.096,265.813 C602.167,265.813 601.768,265.365 601.768,264.311 L601.768,259.247 L603.76,259.247 L603.76,258.052 L601.768,258.052 L601.768,255.736 L600.34,255.736 Z M613.472,265.904 C612.435,265.904 611.663,265.373 611.663,264.46 C611.663,263.563 612.26,263.09 613.622,262.999 L616.029,262.841 L616.029,263.663 C616.029,264.941 614.941,265.904 613.472,265.904 Z M613.207,267.158 C614.402,267.158 615.381,266.635 615.962,265.68 L616.095,265.68 L616.095,267 L617.457,267 L617.457,260.874 C617.457,259.015 616.236,257.894 614.053,257.894 C612.144,257.894 610.733,258.84 610.542,260.276 L611.986,260.276 C612.186,259.571 612.933,259.164 614.003,259.164 C615.34,259.164 616.029,259.77 616.029,260.874 L616.029,261.688 L613.447,261.845 C611.364,261.97 610.185,262.891 610.185,264.493 C610.185,266.128 611.472,267.158 613.207,267.158 Z M620.096,267 L621.524,267 L621.524,261.704 C621.524,260.135 622.445,259.181 623.873,259.181 C625.301,259.181 625.981,259.944 625.981,261.555 L625.981,267 L627.409,267 L627.409,261.206 C627.409,259.081 626.289,257.894 624.28,257.894 C622.91,257.894 622.039,258.475 621.59,259.463 L621.458,259.463 L621.458,258.052 L620.096,258.052 L620.096,267 Z M633.336,267.158 C634.573,267.158 635.635,266.568 636.2,265.572 L636.333,265.572 L636.333,267 L637.694,267 L637.694,254.499 L636.266,254.499 L636.266,259.463 L636.142,259.463 C635.635,258.483 634.581,257.894 633.336,257.894 C631.062,257.894 629.576,259.72 629.576,262.526 C629.576,265.34 631.045,267.158 633.336,267.158 Z M633.668,259.181 C635.287,259.181 636.299,260.476 636.299,262.526 C636.299,264.593 635.295,265.871 633.668,265.871 C632.033,265.871 631.053,264.618 631.053,262.526 C631.053,260.442 632.041,259.181 633.668,259.181 Z M648.883,265.605 C647.223,265.605 646.293,264.344 646.293,262.393 C646.293,260.442 647.223,259.181 648.883,259.181 C650.535,259.181 651.54,260.442 651.54,262.393 C651.54,264.344 650.543,265.605 648.883,265.605 Z M648.95,270.437 C651.39,270.437 652.934,269.158 652.934,267.158 L652.934,258.052 L651.573,258.052 L651.573,259.471 L651.44,259.471 C650.925,258.508 649.821,257.894 648.568,257.894 C646.269,257.894 644.816,259.712 644.816,262.393 C644.816,265.074 646.252,266.867 648.568,266.867 C649.796,266.867 650.809,266.311 651.374,265.323 L651.506,265.323 L651.506,267.083 C651.506,268.403 650.552,269.191 648.95,269.191 C647.663,269.191 646.866,268.718 646.708,267.988 L645.198,267.988 C645.414,269.465 646.792,270.437 648.95,270.437 Z M655.624,267 L657.051,267 L657.051,261.455 C657.051,260.193 658.039,259.28 659.4,259.28 C659.683,259.28 660.197,259.33 660.313,259.363 L660.313,257.936 C660.131,257.911 659.832,257.894 659.6,257.894 C658.413,257.894 657.383,258.508 657.118,259.38 L656.985,259.38 L656.985,258.052 L655.624,258.052 L655.624,267 Z M665.526,267.158 C668.075,267.158 669.652,265.398 669.652,262.526 C669.652,259.646 668.075,257.894 665.526,257.894 C662.978,257.894 661.401,259.646 661.401,262.526 C661.401,265.398 662.978,267.158 665.526,267.158 Z M665.526,265.871 C663.833,265.871 662.878,264.643 662.878,262.526 C662.878,260.401 663.833,259.181 665.526,259.181 C667.22,259.181 668.174,260.401 668.174,262.526 C668.174,264.643 667.22,265.871 665.526,265.871 Z M682.817,258.052 L681.381,258.052 L679.621,265.207 L679.488,265.207 L677.488,258.052 L676.118,258.052 L674.118,265.207 L673.985,265.207 L672.225,258.052 L670.781,258.052 L673.288,267 L674.732,267 L676.724,260.077 L676.857,260.077 L678.857,267 L680.31,267 L682.817,258.052 Z M684.726,267 L686.154,267 L686.154,261.704 C686.154,260.135 687.075,259.181 688.503,259.181 C689.931,259.181 690.611,259.944 690.611,261.555 L690.611,267 L692.039,267 L692.039,261.206 C692.039,259.081 690.918,257.894 688.91,257.894 C687.54,257.894 686.668,258.475 686.22,259.463 L686.087,259.463 L686.087,258.052 L684.726,258.052 L684.726,267 Z M700.215,270.237 C701.801,270.237 702.515,269.623 703.278,267.548 L706.773,258.052 L705.254,258.052 L702.805,265.415 L702.672,265.415 L700.215,258.052 L698.671,258.052 L701.983,267.008 L701.817,267.54 C701.444,268.619 700.996,269.009 700.174,269.009 C699.975,269.009 699.75,269 699.576,268.967 L699.576,270.188 C699.775,270.221 700.024,270.237 700.215,270.237 Z M712.027,267.158 C714.576,267.158 716.153,265.398 716.153,262.526 C716.153,259.646 714.576,257.894 712.027,257.894 C709.479,257.894 707.902,259.646 707.902,262.526 C707.902,265.398 709.479,267.158 712.027,267.158 Z M712.027,265.871 C710.334,265.871 709.379,264.643 709.379,262.526 C709.379,260.401 710.334,259.181 712.027,259.181 C713.721,259.181 714.675,260.401 714.675,262.526 C714.675,264.643 713.721,265.871 712.027,265.871 Z M725.632,258.052 L724.205,258.052 L724.205,263.348 C724.205,264.917 723.341,265.854 721.764,265.854 C720.336,265.854 719.739,265.107 719.739,263.497 L719.739,258.052 L718.311,258.052 L718.311,263.846 C718.311,265.962 719.357,267.158 721.366,267.158 C722.735,267.158 723.69,266.593 724.138,265.597 L724.271,265.597 L724.271,267 L725.632,267 L725.632,258.052 Z M728.322,267 L729.75,267 L729.75,261.455 C729.75,260.193 730.737,259.28 732.099,259.28 C732.381,259.28 732.896,259.33 733.012,259.363 L733.012,257.936 C732.829,257.911 732.53,257.894 732.298,257.894 C731.111,257.894 730.082,258.508 729.816,259.38 L729.683,259.38 L729.683,258.052 L728.322,258.052 L728.322,267 Z M743.952,257.894 C742.732,257.894 741.661,258.517 741.088,259.546 L740.956,259.546 L740.956,258.052 L739.594,258.052 L739.594,269.988 L741.022,269.988 L741.022,265.655 L741.155,265.655 C741.645,266.602 742.674,267.158 743.952,267.158 C746.227,267.158 747.712,265.323 747.712,262.526 C747.712,259.712 746.235,257.894 743.952,257.894 Z M743.612,265.871 C742.001,265.871 740.98,264.576 740.98,262.526 C740.98,260.467 742.001,259.181 743.62,259.181 C745.255,259.181 746.235,260.434 746.235,262.526 C746.235,264.618 745.255,265.871 743.612,265.871 Z M749.954,267 L751.381,267 L751.381,261.455 C751.381,260.193 752.369,259.28 753.73,259.28 C754.013,259.28 754.527,259.33 754.644,259.363 L754.644,257.936 C754.461,257.911 754.162,257.894 753.93,257.894 C752.743,257.894 751.713,258.508 751.448,259.38 L751.315,259.38 L751.315,258.052 L749.954,258.052 L749.954,267 Z M759.856,267.158 C762.405,267.158 763.982,265.398 763.982,262.526 C763.982,259.646 762.405,257.894 759.856,257.894 C757.308,257.894 755.731,259.646 755.731,262.526 C755.731,265.398 757.308,267.158 759.856,267.158 Z M759.856,265.871 C758.163,265.871 757.208,264.643 757.208,262.526 C757.208,260.401 758.163,259.181 759.856,259.181 C761.55,259.181 762.504,260.401 762.504,262.526 C762.504,264.643 761.55,265.871 759.856,265.871 Z M769.535,267.158 C770.772,267.158 771.834,266.568 772.399,265.572 L772.532,265.572 L772.532,267 L773.893,267 L773.893,254.499 L772.465,254.499 L772.465,259.463 L772.341,259.463 C771.834,258.483 770.78,257.894 769.535,257.894 C767.261,257.894 765.775,259.72 765.775,262.526 C765.775,265.34 767.244,267.158 769.535,267.158 Z M769.867,259.181 C771.486,259.181 772.499,260.476 772.499,262.526 C772.499,264.593 771.494,265.871 769.867,265.871 C768.232,265.871 767.252,264.618 767.252,262.526 C767.252,260.442 768.24,259.181 769.867,259.181 Z M783.904,258.052 L782.476,258.052 L782.476,263.348 C782.476,264.917 781.613,265.854 780.036,265.854 C778.608,265.854 778.01,265.107 778.01,263.497 L778.01,258.052 L776.583,258.052 L776.583,263.846 C776.583,265.962 777.628,267.158 779.637,267.158 C781.007,267.158 781.961,266.593 782.41,265.597 L782.542,265.597 L782.542,267 L783.904,267 L783.904,258.052 Z M793.998,260.791 C793.749,259.197 792.42,257.894 790.246,257.894 C787.739,257.894 786.145,259.704 786.145,262.493 C786.145,265.34 787.747,267.158 790.254,267.158 C792.404,267.158 793.74,265.946 793.998,264.302 L792.553,264.302 C792.288,265.315 791.449,265.871 790.246,265.871 C788.652,265.871 787.623,264.56 787.623,262.493 C787.623,260.467 788.635,259.181 790.246,259.181 C791.532,259.181 792.321,259.903 792.553,260.791 L793.998,260.791 Z M796.87,255.736 L796.87,258.052 L795.425,258.052 L795.425,259.247 L796.87,259.247 L796.87,264.676 C796.87,266.386 797.608,267.066 799.451,267.066 C799.733,267.066 800.007,267.033 800.29,266.983 L800.29,265.78 C800.024,265.805 799.883,265.813 799.625,265.813 C798.696,265.813 798.297,265.365 798.297,264.311 L798.297,259.247 L800.29,259.247 L800.29,258.052 L798.297,258.052 L798.297,255.736 L796.87,255.736 Z M810.001,265.904 C808.964,265.904 808.192,265.373 808.192,264.46 C808.192,263.563 808.79,263.09 810.151,262.999 L812.558,262.841 L812.558,263.663 C812.558,264.941 811.471,265.904 810.001,265.904 Z M809.736,267.158 C810.931,267.158 811.911,266.635 812.492,265.68 L812.625,265.68 L812.625,267 L813.986,267 L813.986,260.874 C813.986,259.015 812.766,257.894 810.583,257.894 C808.673,257.894 807.262,258.84 807.071,260.276 L808.516,260.276 C808.715,259.571 809.462,259.164 810.533,259.164 C811.869,259.164 812.558,259.77 812.558,260.874 L812.558,261.688 L809.977,261.845 C807.893,261.97 806.714,262.891 806.714,264.493 C806.714,266.128 808.001,267.158 809.736,267.158 Z M823.864,258.052 L822.436,258.052 L822.436,263.348 C822.436,264.917 821.573,265.854 819.996,265.854 C818.568,265.854 817.97,265.107 817.97,263.497 L817.97,258.052 L816.542,258.052 L816.542,263.846 C816.542,265.962 817.588,267.158 819.597,267.158 C820.967,267.158 821.921,266.593 822.37,265.597 L822.502,265.597 L822.502,267 L823.864,267 L823.864,258.052 Z M829.865,267.158 C831.102,267.158 832.165,266.568 832.729,265.572 L832.862,265.572 L832.862,267 L834.223,267 L834.223,254.499 L832.795,254.499 L832.795,259.463 L832.671,259.463 C832.165,258.483 831.11,257.894 829.865,257.894 C827.591,257.894 826.105,259.72 826.105,262.526 C826.105,265.34 827.574,267.158 829.865,267.158 Z M830.197,259.181 C831.816,259.181 832.829,260.476 832.829,262.526 C832.829,264.593 831.824,265.871 830.197,265.871 C828.562,265.871 827.583,264.618 827.583,262.526 C827.583,260.442 828.57,259.181 830.197,259.181 Z M837.029,267 L838.457,267 L838.457,258.052 L837.029,258.052 L837.029,267 Z M837.743,256.325 C838.291,256.325 838.739,255.877 838.739,255.329 C838.739,254.781 838.291,254.333 837.743,254.333 C837.195,254.333 836.747,254.781 836.747,255.329 C836.747,255.877 837.195,256.325 837.743,256.325 Z M844.749,259.156 C846.168,259.156 847.114,260.202 847.147,261.787 L842.217,261.787 C842.325,260.202 843.321,259.156 844.749,259.156 Z M847.106,264.684 C846.732,265.473 845.952,265.896 844.798,265.896 C843.279,265.896 842.292,264.775 842.217,263.007 L842.217,262.941 L848.65,262.941 L848.65,262.393 C848.65,259.612 847.181,257.894 844.765,257.894 C842.308,257.894 840.731,259.72 840.731,262.534 C840.731,265.365 842.283,267.158 844.765,267.158 C846.724,267.158 848.119,266.211 848.534,264.684 L847.106,264.684 Z M850.891,267 L852.319,267 L852.319,261.704 C852.319,260.135 853.24,259.181 854.668,259.181 C856.096,259.181 856.776,259.944 856.776,261.555 L856.776,267 L858.204,267 L858.204,261.206 C858.204,259.081 857.083,257.894 855.075,257.894 C853.705,257.894 852.833,258.475 852.385,259.463 L852.252,259.463 L852.252,258.052 L850.891,258.052 L850.891,267 Z M868.223,260.791 C867.974,259.197 866.646,257.894 864.471,257.894 C861.964,257.894 860.371,259.704 860.371,262.493 C860.371,265.34 861.973,267.158 864.479,267.158 C866.629,267.158 867.966,265.946 868.223,264.302 L866.779,264.302 C866.513,265.315 865.675,265.871 864.471,265.871 C862.877,265.871 861.848,264.56 861.848,262.493 C861.848,260.467 862.861,259.181 864.471,259.181 C865.758,259.181 866.546,259.903 866.779,260.791 L868.223,260.791 Z M873.901,259.156 C875.32,259.156 876.267,260.202 876.3,261.787 L871.369,261.787 C871.477,260.202 872.473,259.156 873.901,259.156 Z M876.258,264.684 C875.885,265.473 875.104,265.896 873.951,265.896 C872.432,265.896 871.444,264.775 871.369,263.007 L871.369,262.941 L877.802,262.941 L877.802,262.393 C877.802,259.612 876.333,257.894 873.917,257.894 C871.46,257.894 869.883,259.72 869.883,262.534 C869.883,265.365 871.436,267.158 873.917,267.158 C875.876,267.158 877.271,266.211 877.686,264.684 L876.258,264.684 Z M881.222,267.083 C881.82,267.083 882.301,266.593 882.301,266.004 C882.301,265.406 881.82,264.925 881.222,264.925 C880.633,264.925 880.143,265.406 880.143,266.004 C880.143,266.593 880.633,267.083 881.222,267.083 Z M900.123,262.368 L900.123,260.907 L895.267,260.907 L895.267,262.219 L898.637,262.219 L898.637,262.509 C898.637,264.535 897.185,265.904 895.043,265.904 C892.636,265.904 891.142,264.028 891.142,261.007 C891.142,258.027 892.661,256.118 895.035,256.118 C896.811,256.118 898.015,256.973 898.529,258.591 L900.048,258.591 C899.617,256.217 897.691,254.74 895.035,254.74 C891.756,254.74 889.606,257.222 889.606,261.007 C889.606,264.842 891.723,267.282 895.035,267.282 C898.098,267.282 900.123,265.323 900.123,262.368 Z M902.588,267 L904.016,267 L904.016,261.455 C904.016,260.193 905.004,259.28 906.365,259.28 C906.647,259.28 907.162,259.33 907.278,259.363 L907.278,257.936 C907.096,257.911 906.797,257.894 906.564,257.894 C905.377,257.894 904.348,258.508 904.083,259.38 L903.95,259.38 L903.95,258.052 L902.588,258.052 L902.588,267 Z M912.491,267.158 C915.04,267.158 916.617,265.398 916.617,262.526 C916.617,259.646 915.04,257.894 912.491,257.894 C909.943,257.894 908.366,259.646 908.366,262.526 C908.366,265.398 909.943,267.158 912.491,267.158 Z M912.491,265.871 C910.798,265.871 909.843,264.643 909.843,262.526 C909.843,260.401 910.798,259.181 912.491,259.181 C914.185,259.181 915.139,260.401 915.139,262.526 C915.139,264.643 914.185,265.871 912.491,265.871 Z M929.782,258.052 L928.346,258.052 L926.586,265.207 L926.453,265.207 L924.453,258.052 L923.083,258.052 L921.083,265.207 L920.95,265.207 L919.19,258.052 L917.746,258.052 L920.252,267 L921.697,267 L923.689,260.077 L923.822,260.077 L925.822,267 L927.275,267 L929.782,258.052 Z M939.245,265.904 C938.207,265.904 937.435,265.373 937.435,264.46 C937.435,263.563 938.033,263.09 939.394,262.999 L941.801,262.841 L941.801,263.663 C941.801,264.941 940.714,265.904 939.245,265.904 Z M938.979,267.158 C940.174,267.158 941.154,266.635 941.735,265.68 L941.868,265.68 L941.868,267 L943.229,267 L943.229,260.874 C943.229,259.015 942.009,257.894 939.826,257.894 C937.917,257.894 936.505,258.84 936.314,260.276 L937.759,260.276 C937.958,259.571 938.705,259.164 939.776,259.164 C941.112,259.164 941.801,259.77 941.801,260.874 L941.801,261.688 L939.22,261.845 C937.136,261.97 935.958,262.891 935.958,264.493 C935.958,266.128 937.244,267.158 938.979,267.158 Z M950.75,267 L952.177,267 L952.177,261.704 C952.177,260.193 953.057,259.181 954.659,259.181 C956.012,259.181 956.726,259.969 956.726,261.555 L956.726,267 L958.154,267 L958.154,261.206 C958.154,259.106 956.958,257.894 955.066,257.894 C953.696,257.894 952.758,258.475 952.31,259.463 L952.177,259.463 L952.177,254.499 L950.75,254.499 L950.75,267 Z M964.33,259.156 C965.749,259.156 966.695,260.202 966.729,261.787 L961.798,261.787 C961.906,260.202 962.902,259.156 964.33,259.156 Z M966.687,264.684 C966.313,265.473 965.533,265.896 964.379,265.896 C962.86,265.896 961.873,264.775 961.798,263.007 L961.798,262.941 L968.231,262.941 L968.231,262.393 C968.231,259.612 966.762,257.894 964.346,257.894 C961.889,257.894 960.312,259.72 960.312,262.534 C960.312,265.365 961.864,267.158 964.346,267.158 C966.305,267.158 967.7,266.211 968.115,264.684 L966.687,264.684 Z M973.228,265.904 C972.19,265.904 971.418,265.373 971.418,264.46 C971.418,263.563 972.016,263.09 973.377,262.999 L975.785,262.841 L975.785,263.663 C975.785,264.941 974.697,265.904 973.228,265.904 Z M972.962,267.158 C974.158,267.158 975.137,266.635 975.718,265.68 L975.851,265.68 L975.851,267 L977.212,267 L977.212,260.874 C977.212,259.015 975.992,257.894 973.809,257.894 C971.9,257.894 970.489,258.84 970.298,260.276 L971.742,260.276 C971.941,259.571 972.688,259.164 973.759,259.164 C975.096,259.164 975.785,259.77 975.785,260.874 L975.785,261.688 L973.203,261.845 C971.12,261.97 969.941,262.891 969.941,264.493 C969.941,266.128 971.228,267.158 972.962,267.158 Z M979.935,267 L981.363,267 L981.363,254.499 L979.935,254.499 L979.935,267 Z M984.733,255.736 L984.733,258.052 L983.289,258.052 L983.289,259.247 L984.733,259.247 L984.733,264.676 C984.733,266.386 985.472,267.066 987.314,267.066 C987.597,267.066 987.871,267.033 988.153,266.983 L988.153,265.78 C987.887,265.805 987.746,265.813 987.489,265.813 C986.559,265.813 986.161,265.365 986.161,264.311 L986.161,259.247 L988.153,259.247 L988.153,258.052 L986.161,258.052 L986.161,255.736 L984.733,255.736 Z M990.394,267 L991.822,267 L991.822,261.704 C991.822,260.193 992.702,259.181 994.304,259.181 C995.657,259.181 996.371,259.969 996.371,261.555 L996.371,267 L997.798,267 L997.798,261.206 C997.798,259.106 996.603,257.894 994.71,257.894 C993.341,257.894 992.403,258.475 991.955,259.463 L991.822,259.463 L991.822,254.499 L990.394,254.499 L990.394,267 Z M1000.84,270.237 C1002.42,270.237 1003.14,269.623 1003.9,267.548 L1007.39,258.052 L1005.88,258.052 L1003.43,265.415 L1003.29,265.415 L1000.84,258.052 L999.29,258.052 L1002.6,267.008 L1002.44,267.54 C1002.06,268.619 1001.62,269.009 1000.79,269.009 C1000.6,269.009 1000.37,269 1000.2,268.967 L1000.2,270.188 C1000.4,270.221 1000.65,270.237 1000.84,270.237 Z M531.768,299.904 C530.73,299.904 529.958,299.373 529.958,298.46 C529.958,297.563 530.556,297.09 531.917,296.999 L534.324,296.841 L534.324,297.663 C534.324,298.941 533.237,299.904 531.768,299.904 Z M531.502,301.158 C532.697,301.158 533.677,300.635 534.258,299.68 L534.391,299.68 L534.391,301 L535.752,301 L535.752,294.874 C535.752,293.015 534.532,291.894 532.349,291.894 C530.439,291.894 529.028,292.84 528.837,294.276 L530.282,294.276 C530.481,293.571 531.228,293.164 532.299,293.164 C533.635,293.164 534.324,293.77 534.324,294.874 L534.324,295.688 L531.743,295.845 C529.659,295.97 528.48,296.891 528.48,298.493 C528.48,300.128 529.767,301.158 531.502,301.158 Z M538.392,301 L539.819,301 L539.819,295.704 C539.819,294.135 540.741,293.181 542.168,293.181 C543.596,293.181 544.277,293.944 544.277,295.555 L544.277,301 L545.705,301 L545.705,295.206 C545.705,293.081 544.584,291.894 542.575,291.894 C541.206,291.894 540.334,292.475 539.886,293.463 L539.753,293.463 L539.753,292.052 L538.392,292.052 L538.392,301 Z M551.631,301.158 C552.868,301.158 553.931,300.568 554.495,299.572 L554.628,299.572 L554.628,301 L555.989,301 L555.989,288.499 L554.562,288.499 L554.562,293.463 L554.437,293.463 C553.931,292.483 552.876,291.894 551.631,291.894 C549.357,291.894 547.871,293.72 547.871,296.526 C547.871,299.34 549.34,301.158 551.631,301.158 Z M551.963,293.181 C553.582,293.181 554.595,294.476 554.595,296.526 C554.595,298.593 553.59,299.871 551.963,299.871 C550.328,299.871 549.349,298.618 549.349,296.526 C549.349,294.442 550.336,293.181 551.963,293.181 Z M563.56,301 L564.987,301 L564.987,295.455 C564.987,294.193 565.892,293.181 567.062,293.181 C568.191,293.181 568.93,293.861 568.93,294.924 L568.93,301 L570.358,301 L570.358,295.248 C570.358,294.11 571.188,293.181 572.433,293.181 C573.695,293.181 574.317,293.828 574.317,295.148 L574.317,301 L575.745,301 L575.745,294.816 C575.745,292.94 574.724,291.894 572.898,291.894 C571.661,291.894 570.64,292.517 570.159,293.463 L570.026,293.463 C569.611,292.533 568.764,291.894 567.552,291.894 C566.357,291.894 565.46,292.467 565.054,293.463 L564.921,293.463 L564.921,292.052 L563.56,292.052 L563.56,301 Z M581.921,293.156 C583.34,293.156 584.287,294.202 584.32,295.787 L579.389,295.787 C579.497,294.202 580.493,293.156 581.921,293.156 Z M584.278,298.684 C583.905,299.473 583.125,299.896 581.971,299.896 C580.452,299.896 579.464,298.775 579.389,297.007 L579.389,296.941 L585.822,296.941 L585.822,296.393 C585.822,293.612 584.353,291.894 581.938,291.894 C579.48,291.894 577.903,293.72 577.903,296.534 C577.903,299.365 579.456,301.158 581.938,301.158 C583.896,301.158 585.291,300.211 585.706,298.684 L584.278,298.684 Z M590.819,299.904 C589.782,299.904 589.01,299.373 589.01,298.46 C589.01,297.563 589.607,297.09 590.969,296.999 L593.376,296.841 L593.376,297.663 C593.376,298.941 592.289,299.904 590.819,299.904 Z M590.554,301.158 C591.749,301.158 592.729,300.635 593.31,299.68 L593.442,299.68 L593.442,301 L594.804,301 L594.804,294.874 C594.804,293.015 593.583,291.894 591.4,291.894 C589.491,291.894 588.08,292.84 587.889,294.276 L589.333,294.276 C589.533,293.571 590.28,293.164 591.351,293.164 C592.687,293.164 593.376,293.77 593.376,294.874 L593.376,295.688 L590.794,295.845 C588.711,295.97 587.532,296.891 587.532,298.493 C587.532,300.128 588.819,301.158 590.554,301.158 Z M597.443,301 L598.871,301 L598.871,295.704 C598.871,294.135 599.792,293.181 601.22,293.181 C602.648,293.181 603.329,293.944 603.329,295.555 L603.329,301 L604.756,301 L604.756,295.206 C604.756,293.081 603.636,291.894 601.627,291.894 C600.257,291.894 599.386,292.475 598.938,293.463 L598.805,293.463 L598.805,292.052 L597.443,292.052 L597.443,301 Z M607.404,301 L608.832,301 L608.832,292.052 L607.404,292.052 L607.404,301 Z M608.118,290.325 C608.666,290.325 609.114,289.877 609.114,289.329 C609.114,288.781 608.666,288.333 608.118,288.333 C607.57,288.333 607.122,288.781 607.122,289.329 C607.122,289.877 607.57,290.325 608.118,290.325 Z M611.555,301 L612.982,301 L612.982,295.704 C612.982,294.135 613.904,293.181 615.332,293.181 C616.759,293.181 617.44,293.944 617.44,295.555 L617.44,301 L618.868,301 L618.868,295.206 C618.868,293.081 617.747,291.894 615.738,291.894 C614.369,291.894 613.497,292.475 613.049,293.463 L612.916,293.463 L612.916,292.052 L611.555,292.052 L611.555,301 Z M625.102,299.605 C623.441,299.605 622.512,298.344 622.512,296.393 C622.512,294.442 623.441,293.181 625.102,293.181 C626.753,293.181 627.758,294.442 627.758,296.393 C627.758,298.344 626.762,299.605 625.102,299.605 Z M625.168,304.437 C627.608,304.437 629.152,303.158 629.152,301.158 L629.152,292.052 L627.791,292.052 L627.791,293.471 L627.658,293.471 C627.144,292.508 626.04,291.894 624.786,291.894 C622.487,291.894 621.034,293.712 621.034,296.393 C621.034,299.074 622.47,300.867 624.786,300.867 C626.015,300.867 627.027,300.311 627.592,299.323 L627.725,299.323 L627.725,301.083 C627.725,302.403 626.77,303.191 625.168,303.191 C623.881,303.191 623.084,302.718 622.927,301.988 L621.416,301.988 C621.632,303.465 623.01,304.437 625.168,304.437 Z M632.439,301 L633.867,301 L633.867,293.247 L635.917,293.247 L635.917,292.052 L633.867,292.052 L633.867,291.097 C633.867,290.118 634.299,289.62 635.328,289.62 C635.585,289.62 635.826,289.628 636,289.661 L636,288.499 C635.702,288.441 635.386,288.416 635.038,288.416 C633.336,288.416 632.439,289.271 632.439,291.056 L632.439,292.052 L630.954,292.052 L630.954,293.247 L632.439,293.247 L632.439,301 Z M645.239,292.052 L643.812,292.052 L643.812,297.348 C643.812,298.917 642.948,299.854 641.371,299.854 C639.943,299.854 639.346,299.107 639.346,297.497 L639.346,292.052 L637.918,292.052 L637.918,297.846 C637.918,299.962 638.964,301.158 640.973,301.158 C642.342,301.158 643.297,300.593 643.745,299.597 L643.878,299.597 L643.878,301 L645.239,301 L645.239,292.052 Z M648.012,301 L649.439,301 L649.439,288.499 L648.012,288.499 L648.012,301 Z M657.01,301 L658.438,301 L658.438,295.455 C658.438,294.193 659.425,293.28 660.787,293.28 C661.069,293.28 661.583,293.33 661.7,293.363 L661.7,291.936 C661.517,291.911 661.218,291.894 660.986,291.894 C659.799,291.894 658.77,292.508 658.504,293.38 L658.371,293.38 L658.371,292.052 L657.01,292.052 L657.01,301 Z M666.805,293.156 C668.224,293.156 669.17,294.202 669.204,295.787 L664.273,295.787 C664.381,294.202 665.377,293.156 666.805,293.156 Z M669.162,298.684 C668.789,299.473 668.008,299.896 666.854,299.896 C665.335,299.896 664.348,298.775 664.273,297.007 L664.273,296.941 L670.706,296.941 L670.706,296.393 C670.706,293.612 669.237,291.894 666.821,291.894 C664.364,291.894 662.787,293.72 662.787,296.534 C662.787,299.365 664.339,301.158 666.821,301.158 C668.78,301.158 670.175,300.211 670.59,298.684 L669.162,298.684 Z M673.03,301 L674.458,301 L674.458,288.499 L673.03,288.499 L673.03,301 Z M679.986,299.904 C678.949,299.904 678.177,299.373 678.177,298.46 C678.177,297.563 678.774,297.09 680.136,296.999 L682.543,296.841 L682.543,297.663 C682.543,298.941 681.456,299.904 679.986,299.904 Z M679.721,301.158 C680.916,301.158 681.896,300.635 682.477,299.68 L682.609,299.68 L682.609,301 L683.971,301 L683.971,294.874 C683.971,293.015 682.75,291.894 680.567,291.894 C678.658,291.894 677.247,292.84 677.056,294.276 L678.5,294.276 C678.7,293.571 679.447,293.164 680.518,293.164 C681.854,293.164 682.543,293.77 682.543,294.874 L682.543,295.688 L679.961,295.845 C677.878,295.97 676.699,296.891 676.699,298.493 C676.699,300.128 677.986,301.158 679.721,301.158 Z M687.208,289.736 L687.208,292.052 L685.764,292.052 L685.764,293.247 L687.208,293.247 L687.208,298.676 C687.208,300.386 687.947,301.066 689.79,301.066 C690.072,301.066 690.346,301.033 690.628,300.983 L690.628,299.78 C690.362,299.805 690.221,299.813 689.964,299.813 C689.034,299.813 688.636,299.365 688.636,298.311 L688.636,293.247 L690.628,293.247 L690.628,292.052 L688.636,292.052 L688.636,289.736 L687.208,289.736 Z M692.819,301 L694.247,301 L694.247,292.052 L692.819,292.052 L692.819,301 Z M693.533,290.325 C694.081,290.325 694.529,289.877 694.529,289.329 C694.529,288.781 694.081,288.333 693.533,288.333 C692.985,288.333 692.537,288.781 692.537,289.329 C692.537,289.877 692.985,290.325 693.533,290.325 Z M700.647,301.158 C703.195,301.158 704.772,299.398 704.772,296.526 C704.772,293.646 703.195,291.894 700.647,291.894 C698.099,291.894 696.521,293.646 696.521,296.526 C696.521,299.398 698.099,301.158 700.647,301.158 Z M700.647,299.871 C698.954,299.871 697.999,298.643 697.999,296.526 C697.999,294.401 698.954,293.181 700.647,293.181 C702.34,293.181 703.295,294.401 703.295,296.526 C703.295,298.643 702.34,299.871 700.647,299.871 Z M707.014,301 L708.441,301 L708.441,295.704 C708.441,294.135 709.363,293.181 710.791,293.181 C712.218,293.181 712.899,293.944 712.899,295.555 L712.899,301 L714.327,301 L714.327,295.206 C714.327,293.081 713.206,291.894 711.197,291.894 C709.828,291.894 708.956,292.475 708.508,293.463 L708.375,293.463 L708.375,292.052 L707.014,292.052 L707.014,301 Z M716.734,294.5 C716.734,295.795 717.498,296.518 719.174,296.924 L720.71,297.298 C721.665,297.53 722.129,297.945 722.129,298.56 C722.129,299.381 721.266,299.954 720.062,299.954 C718.917,299.954 718.203,299.473 717.962,298.717 L716.493,298.717 C716.651,300.203 718.021,301.158 720.013,301.158 C722.046,301.158 723.599,300.054 723.599,298.452 C723.599,297.165 722.785,296.435 721.1,296.028 L719.722,295.696 C718.668,295.438 718.17,295.057 718.17,294.442 C718.17,293.646 719,293.106 720.062,293.106 C721.142,293.106 721.839,293.579 722.03,294.293 L723.441,294.293 C723.25,292.824 721.947,291.894 720.071,291.894 C718.17,291.894 716.734,293.015 716.734,294.5 Z M725.923,301 L727.351,301 L727.351,295.704 C727.351,294.193 728.23,293.181 729.833,293.181 C731.186,293.181 731.899,293.969 731.899,295.555 L731.899,301 L733.327,301 L733.327,295.206 C733.327,293.106 732.132,291.894 730.239,291.894 C728.87,291.894 727.932,292.475 727.483,293.463 L727.351,293.463 L727.351,288.499 L725.923,288.499 L725.923,301 Z M735.967,301 L737.395,301 L737.395,292.052 L735.967,292.052 L735.967,301 Z M736.681,290.325 C737.229,290.325 737.677,289.877 737.677,289.329 C737.677,288.781 737.229,288.333 736.681,288.333 C736.133,288.333 735.685,288.781 735.685,289.329 C735.685,289.877 736.133,290.325 736.681,290.325 Z M744.475,291.894 C743.255,291.894 742.184,292.517 741.611,293.546 L741.479,293.546 L741.479,292.052 L740.117,292.052 L740.117,303.988 L741.545,303.988 L741.545,299.655 L741.678,299.655 C742.167,300.602 743.197,301.158 744.475,301.158 C746.75,301.158 748.235,299.323 748.235,296.526 C748.235,293.712 746.758,291.894 744.475,291.894 Z M744.135,299.871 C742.524,299.871 741.503,298.576 741.503,296.526 C741.503,294.467 742.524,293.181 744.143,293.181 C745.778,293.181 746.758,294.434 746.758,296.526 C746.758,298.618 745.778,299.871 744.135,299.871 Z M766.53,292.052 L765.094,292.052 L763.334,299.207 L763.202,299.207 L761.201,292.052 L759.832,292.052 L757.831,299.207 L757.698,299.207 L755.938,292.052 L754.494,292.052 L757.001,301 L758.445,301 L760.438,294.077 L760.57,294.077 L762.571,301 L764.023,301 L766.53,292.052 Z M768.473,301 L769.9,301 L769.9,292.052 L768.473,292.052 L768.473,301 Z M769.187,290.325 C769.734,290.325 770.183,289.877 770.183,289.329 C770.183,288.781 769.734,288.333 769.187,288.333 C768.639,288.333 768.19,288.781 768.19,289.329 C768.19,289.877 768.639,290.325 769.187,290.325 Z M773.221,289.736 L773.221,292.052 L771.776,292.052 L771.776,293.247 L773.221,293.247 L773.221,298.676 C773.221,300.386 773.959,301.066 775.802,301.066 C776.084,301.066 776.358,301.033 776.641,300.983 L776.641,299.78 C776.375,299.805 776.234,299.813 775.977,299.813 C775.047,299.813 774.648,299.365 774.648,298.311 L774.648,293.247 L776.641,293.247 L776.641,292.052 L774.648,292.052 L774.648,289.736 L773.221,289.736 Z M778.882,301 L780.31,301 L780.31,295.704 C780.31,294.193 781.189,293.181 782.792,293.181 C784.145,293.181 784.858,293.969 784.858,295.555 L784.858,301 L786.286,301 L786.286,295.206 C786.286,293.106 785.091,291.894 783.198,291.894 C781.829,291.894 780.891,292.475 780.442,293.463 L780.31,293.463 L780.31,288.499 L778.882,288.499 L778.882,301 Z M794.454,304.237 C796.04,304.237 796.753,303.623 797.517,301.548 L801.012,292.052 L799.493,292.052 L797.044,299.415 L796.911,299.415 L794.454,292.052 L792.91,292.052 L796.222,301.008 L796.056,301.54 C795.683,302.619 795.234,303.009 794.413,303.009 C794.213,303.009 793.989,303 793.815,302.967 L793.815,304.188 C794.014,304.221 794.263,304.237 794.454,304.237 Z M806.266,301.158 C808.814,301.158 810.392,299.398 810.392,296.526 C810.392,293.646 808.814,291.894 806.266,291.894 C803.718,291.894 802.141,293.646 802.141,296.526 C802.141,299.398 803.718,301.158 806.266,301.158 Z M806.266,299.871 C804.573,299.871 803.618,298.643 803.618,296.526 C803.618,294.401 804.573,293.181 806.266,293.181 C807.959,293.181 808.914,294.401 808.914,296.526 C808.914,298.643 807.959,299.871 806.266,299.871 Z M819.871,292.052 L818.443,292.052 L818.443,297.348 C818.443,298.917 817.58,299.854 816.003,299.854 C814.575,299.854 813.978,299.107 813.978,297.497 L813.978,292.052 L812.55,292.052 L812.55,297.846 C812.55,299.962 813.596,301.158 815.604,301.158 C816.974,301.158 817.929,300.593 818.377,299.597 L818.51,299.597 L818.51,301 L819.871,301 L819.871,292.052 Z M822.561,301 L823.988,301 L823.988,295.455 C823.988,294.193 824.976,293.28 826.337,293.28 C826.62,293.28 827.134,293.33 827.25,293.363 L827.25,291.936 C827.068,291.911 826.769,291.894 826.537,291.894 C825.35,291.894 824.32,292.508 824.055,293.38 L823.922,293.38 L823.922,292.052 L822.561,292.052 L822.561,301 Z M836.589,299.904 C835.551,299.904 834.779,299.373 834.779,298.46 C834.779,297.563 835.377,297.09 836.738,296.999 L839.146,296.841 L839.146,297.663 C839.146,298.941 838.058,299.904 836.589,299.904 Z M836.323,301.158 C837.519,301.158 838.498,300.635 839.079,299.68 L839.212,299.68 L839.212,301 L840.573,301 L840.573,294.874 C840.573,293.015 839.353,291.894 837.17,291.894 C835.261,291.894 833.85,292.84 833.659,294.276 L835.103,294.276 C835.302,293.571 836.049,293.164 837.12,293.164 C838.457,293.164 839.146,293.77 839.146,294.874 L839.146,295.688 L836.564,295.845 C834.48,295.97 833.302,296.891 833.302,298.493 C833.302,300.128 834.588,301.158 836.323,301.158 Z M850.451,292.052 L849.023,292.052 L849.023,297.348 C849.023,298.917 848.16,299.854 846.583,299.854 C845.155,299.854 844.558,299.107 844.558,297.497 L844.558,292.052 L843.13,292.052 L843.13,297.846 C843.13,299.962 844.176,301.158 846.185,301.158 C847.554,301.158 848.509,300.593 848.957,299.597 L849.09,299.597 L849.09,301 L850.451,301 L850.451,292.052 Z M856.453,301.158 C857.689,301.158 858.752,300.568 859.316,299.572 L859.449,299.572 L859.449,301 L860.811,301 L860.811,288.499 L859.383,288.499 L859.383,293.463 L859.258,293.463 C858.752,292.483 857.698,291.894 856.453,291.894 C854.178,291.894 852.692,293.72 852.692,296.526 C852.692,299.34 854.162,301.158 856.453,301.158 Z M856.785,293.181 C858.403,293.181 859.416,294.476 859.416,296.526 C859.416,298.593 858.412,299.871 856.785,299.871 C855.149,299.871 854.17,298.618 854.17,296.526 C854.17,294.442 855.158,293.181 856.785,293.181 Z M863.616,301 L865.044,301 L865.044,292.052 L863.616,292.052 L863.616,301 Z M864.33,290.325 C864.878,290.325 865.326,289.877 865.326,289.329 C865.326,288.781 864.878,288.333 864.33,288.333 C863.782,288.333 863.334,288.781 863.334,289.329 C863.334,289.877 863.782,290.325 864.33,290.325 Z M871.336,293.156 C872.755,293.156 873.702,294.202 873.735,295.787 L868.804,295.787 C868.912,294.202 869.908,293.156 871.336,293.156 Z M873.693,298.684 C873.32,299.473 872.54,299.896 871.386,299.896 C869.867,299.896 868.879,298.775 868.804,297.007 L868.804,296.941 L875.237,296.941 L875.237,296.393 C875.237,293.612 873.768,291.894 871.353,291.894 C868.896,291.894 867.318,293.72 867.318,296.534 C867.318,299.365 868.871,301.158 871.353,301.158 C873.312,301.158 874.706,300.211 875.121,298.684 L873.693,298.684 Z M877.479,301 L878.906,301 L878.906,295.704 C878.906,294.135 879.828,293.181 881.255,293.181 C882.683,293.181 883.364,293.944 883.364,295.555 L883.364,301 L884.792,301 L884.792,295.206 C884.792,293.081 883.671,291.894 881.662,291.894 C880.292,291.894 879.421,292.475 878.973,293.463 L878.84,293.463 L878.84,292.052 L877.479,292.052 L877.479,301 Z M894.811,294.791 C894.562,293.197 893.233,291.894 891.059,291.894 C888.552,291.894 886.958,293.704 886.958,296.493 C886.958,299.34 888.56,301.158 891.067,301.158 C893.217,301.158 894.553,299.946 894.811,298.302 L893.366,298.302 C893.101,299.315 892.262,299.871 891.059,299.871 C889.465,299.871 888.436,298.56 888.436,296.493 C888.436,294.467 889.448,293.181 891.059,293.181 C892.345,293.181 893.134,293.903 893.366,294.791 L894.811,294.791 Z M900.488,293.156 C901.908,293.156 902.854,294.202 902.887,295.787 L897.957,295.787 C898.064,294.202 899.061,293.156 900.488,293.156 Z M902.846,298.684 C902.472,299.473 901.692,299.896 900.538,299.896 C899.019,299.896 898.031,298.775 897.957,297.007 L897.957,296.941 L904.39,296.941 L904.39,296.393 C904.39,293.612 902.92,291.894 900.505,291.894 C898.048,291.894 896.471,293.72 896.471,296.534 C896.471,299.365 898.023,301.158 900.505,301.158 C902.464,301.158 903.858,300.211 904.273,298.684 L902.846,298.684 Z M907.81,301.083 C908.407,301.083 908.889,300.593 908.889,300.004 C908.889,299.406 908.407,298.925 907.81,298.925 C907.22,298.925 906.73,299.406 906.73,300.004 C906.73,300.593 907.22,301.083 907.81,301.083 Z" id="Shape" fill="#6D7380" fill-rule="nonzero"></path>
            <rect id="Rectangle" fill="#6989F9" fill-rule="nonzero" x="599" y="344" width="240" height="64" rx="8"></rect>
            <path d="M671.318,377.791 L671.318,375.847 L664.884,375.847 L664.884,378.017 L668.611,378.017 L668.601,378.339 C668.558,380.477 666.946,381.916 664.583,381.916 C661.822,381.916 660.093,379.746 660.093,376.223 C660.093,372.742 661.79,370.583 664.497,370.583 C666.484,370.583 667.87,371.561 668.429,373.322 L671.189,373.322 C670.695,370.153 668.074,368.112 664.497,368.112 C660.082,368.112 657.257,371.281 657.257,376.244 C657.257,381.271 660.05,384.387 664.54,384.387 C668.676,384.387 671.318,381.819 671.318,377.791 Z M679.192,374.128 C680.793,374.128 681.846,375.245 681.899,376.985 L676.367,376.985 C676.485,375.267 677.603,374.128 679.192,374.128 Z M681.921,380.767 C681.534,381.637 680.621,382.12 679.3,382.12 C677.549,382.12 676.421,380.896 676.356,378.94 L676.356,378.801 L684.563,378.801 L684.563,377.941 C684.563,374.235 682.555,372.012 679.203,372.012 C675.798,372.012 673.682,374.386 673.682,378.167 C673.682,381.948 675.766,384.236 679.225,384.236 C681.996,384.236 683.962,382.904 684.445,380.767 L681.921,380.767 Z M688.087,369.369 L688.087,372.323 L686.229,372.323 L686.229,374.45 L688.087,374.45 L688.087,380.863 C688.087,383.141 689.161,384.054 691.857,384.054 C692.373,384.054 692.867,384 693.254,383.925 L693.254,381.841 C692.932,381.873 692.728,381.895 692.352,381.895 C691.234,381.895 690.74,381.379 690.74,380.219 L690.74,374.45 L693.254,374.45 L693.254,372.323 L690.74,372.323 L690.74,369.369 L688.087,369.369 Z M701.354,379.789 C701.493,382.604 703.846,384.387 707.401,384.387 C711.161,384.387 713.492,382.507 713.492,379.488 C713.492,377.125 712.171,375.814 709.023,375.105 L707.24,374.697 C705.317,374.257 704.533,373.645 704.533,372.603 C704.533,371.281 705.715,370.422 707.498,370.422 C709.195,370.422 710.398,371.281 710.592,372.646 L713.245,372.646 C713.116,369.981 710.764,368.112 707.509,368.112 C704.039,368.112 701.74,369.981 701.74,372.796 C701.74,375.105 703.062,376.502 705.876,377.136 L707.885,377.598 C709.872,378.06 710.721,378.715 710.721,379.832 C710.721,381.132 709.399,382.066 707.573,382.066 C705.607,382.066 704.232,381.175 704.061,379.789 L701.354,379.789 Z M717.177,369.369 L717.177,372.323 L715.318,372.323 L715.318,374.45 L717.177,374.45 L717.177,380.863 C717.177,383.141 718.251,384.054 720.947,384.054 C721.463,384.054 721.957,384 722.344,383.925 L722.344,381.841 C722.021,381.873 721.817,381.895 721.441,381.895 C720.324,381.895 719.83,381.379 719.83,380.219 L719.83,374.45 L722.344,374.45 L722.344,372.323 L719.83,372.323 L719.83,369.369 L717.177,369.369 Z M729.025,382.099 C727.844,382.099 726.995,381.508 726.995,380.52 C726.995,379.563 727.693,379.026 729.187,378.93 L731.84,378.758 L731.84,379.692 C731.84,381.057 730.637,382.099 729.025,382.099 Z M728.241,384.193 C729.777,384.193 731.066,383.527 731.722,382.389 L731.904,382.389 L731.904,384 L734.472,384 L734.472,375.976 C734.472,373.483 732.774,372.012 729.756,372.012 C726.963,372.012 725.019,373.333 724.804,375.406 L727.317,375.406 C727.564,374.611 728.402,374.182 729.627,374.182 C731.066,374.182 731.84,374.826 731.84,375.976 L731.84,376.964 L728.811,377.146 C725.953,377.318 724.353,378.543 724.353,380.67 C724.353,382.818 725.975,384.193 728.241,384.193 Z M737.684,384 L740.348,384 L740.348,377.211 C740.348,375.567 741.551,374.493 743.28,374.493 C743.731,374.493 744.44,374.568 744.645,374.644 L744.645,372.173 C744.397,372.098 743.925,372.055 743.538,372.055 C742.023,372.055 740.756,372.914 740.434,374.074 L740.251,374.074 L740.251,372.248 L737.684,372.248 L737.684,384 Z M748.222,369.369 L748.222,372.323 L746.363,372.323 L746.363,374.45 L748.222,374.45 L748.222,380.863 C748.222,383.141 749.296,384.054 751.992,384.054 C752.508,384.054 753.002,384 753.389,383.925 L753.389,381.841 C753.066,381.873 752.862,381.895 752.486,381.895 C751.369,381.895 750.875,381.379 750.875,380.219 L750.875,374.45 L753.389,374.45 L753.389,372.323 L750.875,372.323 L750.875,369.369 L748.222,369.369 Z M760.876,374.128 C762.477,374.128 763.529,375.245 763.583,376.985 L758.051,376.985 C758.169,375.267 759.286,374.128 760.876,374.128 Z M763.604,380.767 C763.218,381.637 762.305,382.12 760.983,382.12 C759.232,382.12 758.104,380.896 758.04,378.94 L758.04,378.801 L766.247,378.801 L766.247,377.941 C766.247,374.235 764.238,372.012 760.887,372.012 C757.481,372.012 755.365,374.386 755.365,378.167 C755.365,381.948 757.449,384.236 760.908,384.236 C763.68,384.236 765.646,382.904 766.129,380.767 L763.604,380.767 Z M773.176,384.193 C774.809,384.193 776.162,383.431 776.828,382.142 L777.011,382.142 L777.011,384 L779.589,384 L779.589,367.704 L776.925,367.704 L776.925,374.117 L776.742,374.117 C776.119,372.828 774.787,372.055 773.176,372.055 C770.211,372.055 768.342,374.396 768.342,378.113 C768.342,381.852 770.2,384.193 773.176,384.193 Z M774.003,374.321 C775.829,374.321 776.957,375.782 776.957,378.124 C776.957,380.487 775.84,381.927 774.003,381.927 C772.177,381.927 771.07,380.498 771.07,378.124 C771.07,375.761 772.188,374.321 774.003,374.321 Z" id="Shape" fill="#FFFFFF" fill-rule="nonzero"></path>
            <polygon id="Path" fill="#FF77CA" fill-rule="nonzero" points="294.8 692.907 279.531 666.462 289.212 641.683 321.362 634.635 336.838 661.44 331.047 685.892"></polygon>
            <polygon id="Path" fill-opacity="0.22" fill="#FFFFFF" fill-rule="nonzero" points="294.903 693.087 279.531 666.462 315.051 658.187 331.046 685.892"></polygon>
            <polygon id="Path" fill-opacity="0.28" fill="#000000" fill-rule="nonzero" points="315.259 658.547 330.631 685.172 336.838 661.44 321.466 634.815"></polygon>
            <polygon id="Path" fill="#FF77CA" fill-rule="nonzero" points="266.263 795.393 276.504 777.654 294.145 774.967 309.023 791.28 298.642 809.26 282.495 814.097"></polygon>
            <polygon id="Path" fill-opacity="0.22" fill="#FFFFFF" fill-rule="nonzero" points="266.193 795.513 276.504 777.654 293.224 795.512 282.495 814.096"></polygon>
            <polygon id="Path" fill-opacity="0.28" fill="#000000" fill-rule="nonzero" points="293.085 795.754 282.773 813.613 298.641 809.26 308.953 791.4"></polygon>
        </g>
    </g>
</svg>